<?xml version="1.0" standalone="no"?>
<!DOCTYPE svg PUBLIC "-//W3C//DTD SVG 20010904//EN"
 "http://www.w3.org/TR/2001/REC-SVG-20010904/DTD/svg10.dtd">
<svg version="1.0" xmlns="http://www.w3.org/2000/svg"
 width="800.000000pt" height="317.000000pt" viewBox="0 0 800.000000 317.000000"
 preserveAspectRatio="xMidYMid meet">
<metadata>
Created by potrace 1.15, written by Peter Selinger 2001-2017
</metadata>
<g transform="translate(0.000000,317.000000) scale(0.100000,-0.100000)"
fill="#000000" stroke="none">
<path d="M2338 2760 c-29 -22 -546 -679 -579 -734 -13 -23 -20 -49 -18 -73 2
-21 -3 -51 -11 -66 -12 -25 -11 -30 7 -55 26 -35 75 -42 100 -13 10 12 27 21
40 21 48 0 80 31 232 225 86 110 214 274 285 363 70 90 132 178 137 195 15 52
-13 115 -64 144 -34 19 -101 16 -129 -7z"/>
<path d="M991 2020 c-272 -38 -509 -207 -633 -453 -58 -117 -81 -211 -86 -348
-3 -101 0 -128 23 -208 32 -116 62 -183 116 -263 296 -435 897 -494 1265 -123
397 399 290 1061 -211 1310 -148 74 -324 105 -474 85z m296 -243 c71 -24 134
-57 181 -95 l24 -18 -194 -242 c-106 -133 -196 -241 -199 -242 -4 0 -57 65
-118 145 -61 79 -121 151 -133 160 -13 8 -41 15 -63 15 -84 0 -148 -75 -128
-151 11 -43 335 -470 375 -493 34 -20 93 -20 126 0 15 9 131 145 257 304 127
158 233 285 236 281 4 -3 15 -31 25 -61 29 -83 26 -282 -4 -367 -70 -196 -232
-346 -428 -397 -129 -33 -297 -15 -417 45 -307 154 -426 527 -265 832 40 76
154 193 228 234 51 29 151 65 210 77 62 12 216 -3 287 -27z"/>
<path d="M4921 1707 l-23 -176 -32 23 c-102 76 -254 51 -355 -59 -141 -153
-176 -474 -65 -603 45 -53 89 -72 163 -72 76 0 124 19 176 70 l40 39 -3 -44
-4 -45 94 0 94 0 68 488 c37 268 70 497 73 508 6 27 -4 31 -113 39 l-89 7 -24
-175z m-66 -298 l23 -24 -20 -140 c-19 -124 -24 -144 -52 -181 -63 -84 -147
-114 -186 -66 -64 78 -8 366 82 422 45 29 120 23 153 -11z"/>
<path d="M3174 1587 c-192 -49 -312 -240 -302 -477 3 -78 9 -104 30 -145 51
-98 120 -137 254 -143 122 -6 198 16 302 86 11 7 6 22 -24 68 -20 32 -38 60
-39 62 -1 1 -31 -11 -66 -28 -50 -23 -78 -30 -125 -30 -73 0 -98 16 -118 75
-17 47 -14 50 64 59 189 21 337 101 376 201 22 60 15 132 -19 184 -53 79 -206
120 -333 88z m138 -154 c42 -38 11 -116 -60 -152 -34 -17 -125 -41 -157 -41
-17 0 4 75 40 135 39 67 133 98 177 58z"/>
<path d="M4050 1591 c-51 -16 -96 -44 -137 -84 l-43 -41 0 57 0 58 -87 -3 -87
-3 -12 -80 c-7 -44 -28 -199 -48 -345 -20 -146 -39 -275 -42 -287 -4 -23 -3
-23 101 -23 58 0 105 3 105 8 0 4 12 95 26 202 29 219 44 260 121 330 33 31
51 40 78 40 29 0 36 -4 42 -27 5 -23 -41 -404 -64 -525 l-5 -28 104 0 104 0
37 273 c21 149 37 292 37 317 0 56 -33 117 -77 142 -36 21 -116 31 -153 19z"/>
<path d="M5504 1590 c-109 -23 -209 -104 -261 -211 -41 -86 -57 -157 -56 -259
0 -68 5 -96 25 -140 30 -67 91 -123 160 -146 56 -18 178 -20 241 -3 55 15 157
66 163 83 4 10 -19 55 -63 125 -1 2 -30 -11 -64 -28 -50 -25 -75 -31 -124 -31
-74 0 -109 22 -124 78 -12 42 -4 52 45 52 45 0 214 45 261 69 87 44 136 106
149 189 12 79 -41 168 -124 205 -50 21 -166 30 -228 17z m124 -156 c31 -21 30
-74 -3 -113 -28 -32 -103 -65 -178 -76 l-47 -7 16 53 c21 71 50 117 88 140 38
23 94 25 124 3z"/>
<path d="M6327 1585 c-22 -7 -51 -24 -65 -37 -26 -22 -36 -33 -64 -71 -11 -15
-13 -9 -10 43 l4 60 -91 0 c-50 0 -91 -2 -91 -5 0 -2 -22 -165 -50 -362 -27
-197 -50 -361 -50 -366 0 -4 46 -6 102 -5 l103 3 25 181 c22 160 29 189 60
250 44 86 82 114 156 114 l53 0 25 84 c33 107 33 112 -5 120 -43 8 -58 7 -102
-9z"/>
<path d="M6734 1587 c-186 -48 -297 -217 -298 -452 -1 -113 19 -173 77 -233
62 -65 98 -77 227 -77 112 0 117 1 178 34 109 59 177 162 208 311 50 247 -55
414 -268 425 -41 3 -95 -1 -124 -8z m149 -168 c52 -40 59 -166 17 -303 -31
-100 -109 -158 -184 -138 -54 15 -71 52 -70 155 1 149 42 253 114 289 46 24
91 23 123 -3z"/>
<path d="M7648 1590 c-48 -15 -99 -52 -129 -93 l-29 -40 0 62 0 62 -87 -3 -88
-3 -46 -334 c-26 -184 -49 -349 -52 -367 l-6 -34 105 0 c57 0 104 4 104 9 0 5
11 87 25 181 29 197 55 269 116 325 35 31 45 35 97 35 l57 0 28 96 c15 53 26
98 25 99 -9 9 -97 13 -120 5z"/>
<path d="M2200 1575 c0 -3 29 -166 65 -363 36 -198 65 -362 65 -366 0 -3 55
-6 123 -6 l122 0 160 355 c88 195 161 362 163 370 3 13 -13 15 -101 15 l-105
0 -50 -127 c-27 -71 -73 -192 -103 -270 -29 -78 -56 -139 -59 -137 -5 5 -58
464 -59 512 -1 21 -4 22 -111 22 -60 0 -110 -2 -110 -5z"/>
</g>
</svg>
