<?xml version="1.0" encoding="utf-8"?>
<!-- Generator: Adobe Illustrator 16.0.0, SVG Export Plug-In . SVG Version: 6.00 Build 0)  -->
<!DOCTYPE svg PUBLIC "-//W3C//DTD SVG 1.1//EN" "http://www.w3.org/Graphics/SVG/1.1/DTD/svg11.dtd">
<svg version="1.1" id="Layer_1" xmlns="http://www.w3.org/2000/svg" xmlns:xlink="http://www.w3.org/1999/xlink" x="0px" y="0px"
	 width="800px" height="317px" viewBox="0 0 800 317" enable-background="new 0 0 800 317" xml:space="preserve">
<g transform="translate(0.000000,317.000000) scale(0.100000,-0.100000)">
	<path fill="#00A19A" d="M2337.998,2760c-28.999-22.002-545.996-678.999-578.999-733.999c-12.998-23.003-20-48.999-17.998-73.003
		c1.997-20.996-3.003-50.996-11.001-65.996c-12.002-25-11.001-30,7.002-55c25.996-35,75-42.002,100-13.003
		c10,12.002,26.997,21.001,40,21.001c47.998,0,80,31.001,231.997,225c86.001,110,213.999,273.999,285,362.998
		c70,90,132.002,178.003,137.002,195c15,52.002-13.003,115-63.999,144.004C2432.998,2786.001,2366.001,2782.998,2337.998,2760z"/>
	<path fill="#00A19A" d="M991.001,2020c-272.002-37.998-508.999-207.002-633.003-452.998
		C300,1450,277.002,1355.996,272.002,1219.004c-3.003-101.006,0-128.008,22.998-208.008
		C327.002,895,357.002,827.998,411.001,747.998c296.001-435,896.997-493.994,1265-122.998
		c396.997,399.004,290,1061.001-211.001,1310C1317.002,2008.999,1141.001,2040,991.001,2020z M1287.002,1777.002
		c70.996-24.004,133.999-57.002,180.996-95l24.004-18.003l-194.004-241.997c-105.996-132.998-195.996-241.006-198.999-242.002
		c-3.999,0-56.997,65-117.998,145C920,1404.004,860,1475.996,847.998,1485c-12.998,7.998-40.996,15-62.998,15
		c-83.999,0-147.998-75-127.998-150.996c10.996-43.008,335-470,375-493.008c33.999-20,92.998-20,125.996,0
		c15,9.004,131.001,145,257.002,304.004c127.002,157.998,232.998,285,236.001,280.996c3.999-2.998,15-30.996,25-60.996
		c28.999-82.998,26.001-282.002-3.999-367.002c-70-195.996-232.002-345.996-428.003-397.002c-128.999-32.998-296.997-15-416.997,45
		C520,815,401.001,1187.998,562.002,1492.998c40,76.006,153.999,193.003,227.998,234.004c51.001,28.999,151.001,65,210,76.997
		C1062.002,1816.001,1216.001,1801.001,1287.002,1777.002z"/>
	<path fill="#00A19A" d="M4920.996,1707.002l-22.998-176.006l-32.002,23.008c-101.992,75.996-253.994,50.996-355-59.004
		c-140.996-152.998-175.996-474.004-65-602.998c45-52.998,89.004-72.002,163.008-72.002c75.996,0,123.994,19.004,175.996,70
		l40,39.004L4822.001,885l-4.004-45h94.004h93.994l68.008,487.998c36.992,268.003,70,497.002,72.998,508.003
		c5.996,26.997-4.004,31.001-112.998,38.999l-89.004,7.002L4920.996,1707.002z M4855,1409.004l22.998-24.004l-20-140
		c-18.994-124.004-23.994-144.004-52.002-180.996C4742.998,980,4659.003,950,4620,997.998
		c-64.004,77.998-7.998,366.006,82.002,422.002C4747.001,1449.004,4822.001,1442.998,4855,1409.004z"/>
	<path fill="#00A19A" d="M3174.004,1587.002c-192.002-49.004-312.002-240-302.002-477.002c2.998-77.998,8.999-104.004,30-145
		c50.996-97.998,120-137.002,253.994-142.998c122.002-6.006,198.008,15.996,302.002,85.996c11.006,7.002,6.006,22.002-23.994,67.998
		c-20,32.002-38.008,60-39.004,62.002c-0.996,1.006-30.996-10.996-65.996-27.998c-50-22.998-78.008-30-125-30
		c-73.008,0-98.008,15.996-118.008,75c-16.992,47.002-13.994,50,64.004,59.004C3339.004,1135,3487.002,1215,3525.996,1315
		c22.002,60,15,132.002-18.994,184.004C3454.004,1577.998,3300.996,1618.999,3174.004,1587.002z M3312.002,1432.998
		c42.002-37.998,10.996-115.996-60-152.002c-34.004-16.992-125-40.996-157.002-40.996c-17.002,0,4.004,75,40,135
		C3174.004,1442.002,3267.998,1472.998,3312.002,1432.998z"/>
	<path fill="#00A19A" d="M4050,1591.001c-50.996-16.001-95.996-43.999-137.002-83.999L3870,1465.996v57.002v58.003l-87.002-3.003
		l-87.002-2.998l-11.992-80c-7.002-44.004-28.008-199.004-48.008-345s-38.994-275-41.992-287.002C3590,840,3590.996,840,3695,840
		c57.998,0,105,2.998,105,7.998c0,4.004,12.002,95,25.996,202.002c29.004,219.004,44.004,260,121.006,330
		c32.998,30.996,50.996,40,77.998,40c29.004,0,35.996-4.004,42.002-27.002c5-22.998-41.006-403.994-64.004-525l-5-27.998h104.004
		h103.994l37.002,272.998C4264.003,1262.002,4280,1405,4280,1430c0,55.996-32.998,117.002-77.002,142.002
		C4167.001,1592.998,4087.002,1602.998,4050,1591.001z"/>
	<path fill="#00A19A" d="M5504.003,1590C5395,1567.002,5295,1485.996,5242.998,1379.004
		c-40.996-86.006-57.002-157.002-55.996-259.004c0-67.998,5-95.996,25-140c30-67.002,90.996-122.998,160-145.996
		c55.996-18.008,177.998-20,240.996-3.008c55,15,157.002,66.006,162.998,83.008c4.004,10-18.994,55-62.998,125
		c-0.996,1.992-30-11.006-63.994-28.008c-50-25-75-30.996-124.004-30.996c-74.004,0-109.004,22.002-124.004,77.998
		c-11.992,42.002-3.994,52.002,45,52.002c45,0,214.004,45,261.006,69.004c87.002,43.994,135.996,105.996,148.994,188.994
		c12.002,79.004-40.996,167.998-123.994,205C5682.001,1593.999,5565.996,1602.998,5504.003,1590z M5627.998,1434.004
		c31.006-21.006,30-74.004-2.998-113.008c-27.998-31.992-102.998-65-177.998-75.996l-47.002-7.002l15.996,52.998
		c21.006,71.006,50,117.002,88.008,140C5542.001,1454.004,5597.998,1455.996,5627.998,1434.004z"/>
	<path fill="#00A19A" d="M6327.001,1585c-22.002-7.002-51.006-24.004-65-37.002c-26.006-22.002-36.006-32.998-64.004-70.996
		c-10.996-15-12.998-9.004-10,42.998l4.004,60h-91.006c-50,0-90.996-2.002-90.996-5c0-2.002-22.002-165-50-362.002
		c-27.002-197.002-50-360.996-50-365.996c0-4.004,45.996-6.006,102.002-5L6115,845l25,180.996c22.002,160,29.004,189.004,60,250
		c44.004,86.006,82.002,114.004,155.996,114.004h53.008l25,84.004c32.998,106.997,32.998,111.997-5,119.995
		C6385.996,1602.002,6370.996,1601.001,6327.001,1585z"/>
	<path fill="#00A19A" d="M6734.003,1587.002C6547.998,1539.004,6437.001,1370,6435.996,1135
		C6435,1022.002,6455,962.002,6512.998,902.002C6575,837.002,6610.996,825,6740,825c112.002,0,117.002,0.996,177.998,34.004
		C7027.001,917.998,7095,1020.996,7125.996,1170c50,247.002-55,413.999-267.998,425
		C6817.001,1597.998,6762.998,1593.999,6734.003,1587.002z M6882.998,1419.004c52.002-40,59.004-166.006,17.002-303.008
		c-30.996-100-109.004-157.998-184.004-137.998c-53.994,15-70.996,52.002-70,155c1.006,149.004,42.002,252.998,114.004,289.004
		C6805.996,1445.996,6850.996,1445,6882.998,1419.004z"/>
	<path fill="#00A19A" d="M7647.998,1590c-47.998-15-98.994-52.002-128.994-92.998l-29.004-40v62.002v61.997l-87.002-3.003L7315,1575
		l-45.996-334.004c-26.006-183.994-49.004-348.994-52.002-366.992L7210.996,840h105c57.002,0,104.004,4.004,104.004,9.004
		s10.996,86.992,25,180.996c29.004,197.002,55,269.004,115.996,325c35,30.996,45,35,97.002,35H7715l27.998,95.996
		c15,53.008,26.006,98.003,25,99.004C7759.003,1593.999,7670.996,1597.998,7647.998,1590z"/>
	<path fill="#00A19A" d="M2200,1575c0-2.998,28.999-165.996,65-362.998c36.001-197.998,65-362.002,65-366.006
		c0-2.998,55-5.996,122.998-5.996H2575l160,355c87.998,195,161.001,362.002,162.998,370c3.003,12.998-12.998,15-100.996,15h-105
		l-50-127.002c-27.002-70.996-73.003-192.002-103.003-270C2510,1105,2482.998,1044.004,2480,1045.996
		c-5,5-57.998,464.004-58.999,512.002C2420,1579.004,2417.002,1580,2310,1580C2250,1580,2200,1577.998,2200,1575z"/>
</g>
</svg>
